<?xml version="1.0" encoding="iso-8859-1"?>
<!-- Generator: Adobe Illustrator 18.0.0, SVG Export Plug-In . SVG Version: 6.00 Build 0)  -->
<!DOCTYPE svg PUBLIC "-//W3C//DTD SVG 1.1//EN" "http://www.w3.org/Graphics/SVG/1.1/DTD/svg11.dtd">
<svg xmlns="http://www.w3.org/2000/svg" xmlns:xlink="http://www.w3.org/1999/xlink" version="1.1" id="Capa_1" x="0px" y="0px" viewBox="0 0 488.392 488.392" style="enable-background:new 0 0 488.392 488.392;" xml:space="preserve" width="512px" height="512px">
<path d="M481.517,291.694l-4.619-46.594c-0.27-2.72-2.343-4.914-5.043-5.336l-32.872-5.145l-26.355-57.23  c-0.98-2.128-3.108-3.49-5.45-3.49h-62.494c-3.313,0-6,2.687-6,6v47.721L224.919,124.807c-2.37-2.142-6.004-2.051-8.264,0.208  l-7.315,7.309c-2.3,2.298-2.351,6.01-0.115,8.37l1.857,1.96V268.33c-0.028-0.003-0.055-0.007-0.083-0.01l-6.32-7.598  c-0.831-0.999-2.096-1.531-3.393-1.429l-35.487,2.829l-42.603-44.105c-0.954-0.987-2.346-1.419-3.691-1.137L42.42,232.912  c-1.606,0.334-2.846,1.615-3.126,3.231l-8.859,50.975l-17.572,3.655c-8.941,1.859-13.003,8.054-11.145,16.995l3.731,17.939  c-1.583,0.725-2.935,1.882-3.914,3.375c-1.371,2.091-1.845,4.59-1.336,7.037l1.45,6.973c0.898,4.318,4.749,7.453,9.156,7.453  c0,0,0,0,0,0c0.64,0,1.283-0.066,1.912-0.197l21.378-4.446c4.167,11.357,15.116,19.233,27.468,19.233c2,0,4.012-0.208,5.982-0.617  c7.657-1.593,14.236-6.071,18.523-12.611c3.503-5.342,5.132-11.538,4.744-17.801l58.016-12.066  c4.167,11.357,15.115,19.232,27.466,19.232c1.999,0,4.012-0.207,5.982-0.617c14.395-2.995,24.123-16.147,23.263-30.41l21.374-4.445  c5.05-1.052,8.304-6.017,7.253-11.068l-1.45-6.974c-0.899-4.319-4.749-7.454-9.155-7.454c-0.639,0-1.282,0.066-1.911,0.197  l-0.521,0.108l-0.048-0.23V153.212l91.597,96.705l-52.686,0c-3.028,0-5.581,2.256-5.954,5.261l-4.592,37.004h-1.456  c-3.313,0-6,2.686-6,6v26.124c0,3.313,2.687,6,6,6h20.448c0.438,19.278,16.243,34.828,35.623,34.828  c19.382,0,35.189-15.55,35.627-34.828l54.53,0c0.44,19.278,16.245,34.827,35.624,34.827c19.382,0,35.188-15.549,35.627-34.827h10.48  c6.859,0,12.44-5.581,12.44-12.441v-15.046C488.392,297.959,485.591,293.74,481.517,291.694z M71.015,342.036  c-1.651,2.519-4.186,4.244-7.135,4.858c-0.767,0.16-1.546,0.24-2.317,0.24c-5.302,0-9.936-3.779-11.019-8.986  c-0.613-2.949-0.042-5.961,1.609-8.48c1.651-2.519,4.184-4.243,7.134-4.857c0.767-0.159,1.547-0.24,2.318-0.24  c5.302,0,9.936,3.778,11.018,8.985C73.238,336.506,72.667,339.517,71.015,342.036z M178.611,323.031  c-0.767,0.16-1.546,0.24-2.316,0.24c-5.301,0-9.935-3.779-11.018-8.986c-1.267-6.088,2.655-12.071,8.742-13.337  c0.767-0.16,1.547-0.24,2.318-0.24c5.303,0,9.938,3.779,11.021,8.985C188.624,315.781,184.7,321.764,178.611,323.031z   M357.208,244.36v-52.023h41.859l19.363,41.128h-24.355c-1.675,0-3.273,0.7-4.409,1.931l-8.982,9.732l-22.627,0.001L357.208,244.36z   M304.063,347.134c-9.728,0-17.643-7.917-17.643-17.647c0-9.73,7.915-17.647,17.643-17.647c9.73,0,17.648,7.916,17.648,17.647  C321.711,339.218,313.794,347.134,304.063,347.134z M429.844,347.134c-9.729,0-17.645-7.917-17.645-17.647  c0-9.73,7.915-17.647,17.645-17.647c9.73,0,17.647,7.917,17.647,17.647C447.492,339.218,439.575,347.134,429.844,347.134z" fill="#005dac"/>
<g>
</g>
<g>
</g>
<g>
</g>
<g>
</g>
<g>
</g>
<g>
</g>
<g>
</g>
<g>
</g>
<g>
</g>
<g>
</g>
<g>
</g>
<g>
</g>
<g>
</g>
<g>
</g>
<g>
</g>
</svg>
